<?xml version="1.0" encoding="UTF-8" standalone="no"?>
<svg
   width="440.33228"
   height="498.64651"
   version="1.1"
   viewBox="0 0 440.33228 498.64651"
   id="svg68"
   sodipodi:docname="vauban-opt.svg"
   xmlns:inkscape="http://www.inkscape.org/namespaces/inkscape"
   xmlns:sodipodi="http://sodipodi.sourceforge.net/DTD/sodipodi-0.dtd"
   xmlns="http://www.w3.org/2000/svg"
   xmlns:svg="http://www.w3.org/2000/svg">
  <defs
     id="defs68" />
  <sodipodi:namedview
     id="namedview68"
     pagecolor="#000000"
     bordercolor="#000000"
     borderopacity="0.25"
     inkscape:showpageshadow="2"
     inkscape:pageopacity="0.0"
     inkscape:pagecheckerboard="0"
     inkscape:deskcolor="#d1d1d1"
     showgrid="false" />
  <g
     transform="translate(-10.963,-11.893499)"
     id="g28"
     style="display:inline">
    <g
       stroke-width="0"
       id="g2">
      <path
         d="m 10.963,114.69 20.801,10.12 -0.1564,257.14 -18.958,-10.058 z"
         fill="#e0deda"
         id="path1" />
      <path
         transform="rotate(62.38)"
         d="m 106.91,-36.098 18.081,-13.681 0.32067,79.492 -18.604,13.742 z"
         fill="#ffffff"
         id="path2" />
    </g>
    <g
       stroke-width="0"
       id="g6">
      <path
         d="m 138.7,314.29 17.303,8.5792 v 42.871 h -17.347 z"
         fill="#92d8fa"
         id="path3" />
      <g
         fill="#ffffff"
         id="g5">
        <path
           d="m 47.021,347.04 0.01563,19.73 54.588,29.713 v -20.5 z"
           id="path4" />
        <path
           d="m 47.031,302.74 0.01563,19.73 108.95,59.305 v -21.273 z"
           id="path5" />
        <rect
           x="47.066002"
           y="317.76999"
           width="17.347"
           height="47.118999"
           id="rect5" />
      </g>
    </g>
    <g
       stroke-width="0"
       id="g8">
      <path
         d="m 64.324,125.11 -17.303,8.5801 v 38.094 h 17.344 z"
         fill="#92d8fa"
         id="path6" />
      <path
         d="m 153.46,147.68 -17.303,8.5801 v 6.1172 h -0.002 l 0.002,2.2441 v 1.0059 l 0.0137,14.697 17.303,-8.5801 v -6.1172 h 0.002 l -0.002,-2.2441 v -1.0059 z"
         fill="#4898cb"
         id="path7" />
      <path
         d="m 166.79,328 17.303,8.5792 -0.008,58.23 h -17.292 z"
         fill="#e0deda"
         id="path8" />
    </g>
    <g
       stroke-width="0"
       id="g11">
      <path
         d="m 47.031,260.45 0.01563,19.73 84.209,45.836 v -20.922 z"
         fill="#ffffff"
         id="path9" />
      <path
         d="m 47.07,194.8 -0.03906,65.652 17.303,9.1719 -0.002,-74.777 z m -0.03906,66.279 v 0.85547 h 0.002 z"
         fill="#e0deda"
         id="path10" />
      <path
         d="m 75.701,212.22 -0.03711,63.406 17.303,9.1719 -0.002,-72.578 z m -0.03711,64.033 v 0.85547 h 0.002 z"
         fill="#92d8fa"
         id="path11" />
    </g>
    <path
       d="m 199.27,344.14 -0.0449,30.051 31.908,17.635 0.004,-1.2891 v -28.414 z"
       fill="#92d8fa"
       stroke-width="0"
       id="path12" />
    <path
       transform="translate(19.003,13.435)"
       d="m 190.65,415.29 -22.345,-11.831 18.163,-7.1385 0.0331,-12.848 4.1516,0.0675 z"
       fill="#92d8fa"
       stroke-width="0"
       id="path13" />
    <g
       stroke-width="0"
       id="g15">
      <path
         d="m 150.21,112.66 -46.66,25.398 -0.0137,18.01 63.588,-34.613 z m 19.062,7.123 v 0.50195 l 0.49219,-0.26758 z"
         fill="#ffffff"
         id="path14" />
      <path
         d="m 103.54,138.06 -0.0352,39.625 h -0.01 v 42.871 l 17.303,8.5801 0.0352,-39.625 h 0.01 v -42.871 z"
         fill="#92d8fa"
         id="path15" />
    </g>
    <g
       stroke-width="0"
       id="g17">
      <path
         d="m 118.44,96.09 -44.379,24.158 -0.01367,18.01 61.256,-33.344 -5.7148,-2.9726 0.0547,-0.0254 z"
         fill="#ffffff"
         id="path16" />
      <path
         d="m 74.045,120.25 0.01758,67 h 17.285 v -58.42 z"
         fill="#92d8fa"
         id="path17" />
    </g>
    <g
       transform="translate(56.465,-84)"
       fill="#ffffff"
       stroke-width="0"
       id="g19">
      <path
         d="m 47.031,302.74 0.01563,19.73 108.95,59.305 v -21.273 z"
         id="path18" />
      <path
         d="m 47.066,317.77 h 17.347 v 47.119 l -17.342,-9.5567 z"
         id="path19" />
    </g>
    <path
       d="m 205.25,56.107 -17.303,8.5801 v 6.1172 h -0.002 l 0.002,2.2441 v 1.0059 l 0.0137,14.697 0.0469,-0.02344 0.004,4.916 17.303,-8.5801 v -6.1172 h 0.002 l -0.002,-2.2441 v -1.0059 l -0.0138,-14.697 -0.0469,0.02344 z"
       fill="#4898cb"
       stroke-width="0"
       id="path20" />
    <g
       fill="#4898cb"
       fill-rule="evenodd"
       stroke-linejoin="round"
       stroke-width="0"
       id="g23">
      <path
         d="m 171.77,176.56 -36.146,18.219 14.951,8.2695 35.146,-19.326 -0.008,-0.004 z"
         fill="#9bddfd"
         id="path21" />
      <path
         d="m 150.58,226.1 v -23.075 l -14.957,-8.2553 v 23.287 z"
         fill="#92d8fa"
         id="path22" />
      <path
         d="m 185.72,205.87 -35.141,20.236 0.001,-23.088 35.143,-19.319 z"
         id="path23" />
    </g>
    <g
       fill="#ffffff"
       stroke-width="0"
       id="g26">
      <path
         d="m 199.89,17.607 -70.582,36.701 0.0547,0.02539 -30.625,15.926 20.801,10.111 30.369,-16.047 0.20117,0.09766 49.791,-26.309 v -20.502 z"
         id="path24" />
      <path
         d="m 119.55,60.152 -20.801,10.111 30.625,15.926 -0.0547,0.02539 39.68,20.633 v -20.771 l -18.879,-9.9746 -0.20117,0.09766 z"
         id="path25" />
      <path
         d="m 152.85,82.276 16.147,-8.6577 v 23.625 h -11.438 z"
         id="path26" />
    </g>
    <circle
       cx="170"
       cy="155.21001"
       r="9.8994999"
       fill="#9bddfd"
       stroke-width="0"
       id="circle26" />
    <g
       id="g27">
      <path
         d="m 186.27,142.83 v 0.004 l 0.008,-0.004 z m 0,0.0117 v 23.094 l 12.932,7.1016 0.004,4.0684 h 0.01 v 43.51 l 31.926,17.531 v -71.623 z"
         fill="#92d8fa"
         stroke-width="0"
         id="path27" />
    </g>
  </g>
  <g
     transform="matrix(-1,0,0,1,451.2953,-11.893499)"
     id="g55"
     style="display:inline">
    <g
       stroke-width="0"
       id="g29">
      <path
         d="m 10.963,114.69 20.801,10.12 -0.1564,257.14 -18.958,-10.058 z"
         fill="#e0deda"
         id="path28" />
      <path
         transform="rotate(62.38)"
         d="m 106.91,-36.098 18.081,-13.681 0.32067,79.492 -18.604,13.742 z"
         fill="#ffffff"
         id="path29" />
    </g>
    <g
       stroke-width="0"
       id="g33">
      <path
         d="m 138.7,314.29 17.303,8.5792 v 42.871 h -17.347 z"
         fill="#4898cb"
         id="path30" />
      <g
         fill="#ffffff"
         id="g32">
        <path
           d="m 47.021,347.04 0.01563,19.73 54.588,29.713 v -20.5 z"
           id="path31" />
        <path
           d="m 47.031,302.74 0.01563,19.73 108.95,59.305 v -21.273 z"
           id="path32" />
        <rect
           x="47.066002"
           y="317.76999"
           width="17.347"
           height="47.118999"
           id="rect32" />
      </g>
    </g>
    <g
       stroke-width="0"
       id="g35">
      <path
         d="m 64.324,125.11 -17.303,8.5801 v 38.094 h 17.344 z"
         fill="#92d8fa"
         id="path33" />
      <path
         d="m 153.46,147.68 -17.303,8.5801 v 6.1172 h -0.002 l 0.002,2.2441 v 1.0059 l 0.0137,14.697 17.303,-8.5801 v -6.1172 h 0.002 l -0.002,-2.2441 v -1.0059 z"
         fill="#8ed1f9"
         id="path34" />
      <path
         d="m 166.79,328 17.303,8.5792 -0.008,58.23 h -17.292 z"
         fill="#e0deda"
         id="path35" />
    </g>
    <g
       stroke-width="0"
       id="g38">
      <path
         d="m 47.031,260.45 0.01563,19.73 84.209,45.836 v -20.922 z"
         fill="#ffffff"
         id="path36" />
      <path
         d="m 47.07,194.8 -0.03906,65.652 17.303,9.1719 -0.002,-74.777 z m -0.03906,66.279 v 0.85547 h 0.002 z"
         fill="#e0deda"
         id="path37" />
      <path
         d="m 75.701,212.22 -0.03711,63.406 17.303,9.1719 -0.002,-72.578 z m -0.03711,64.033 v 0.85547 h 0.002 z"
         fill="#92d8fa"
         id="path38" />
    </g>
    <path
       d="m 199.27,344.14 -0.0449,30.051 31.908,17.635 0.004,-1.2891 v -28.414 z"
       fill="#4898cb"
       stroke-width="0"
       id="path39" />
    <path
       transform="translate(19.003,13.435)"
       d="m 190.65,415.29 -22.345,-11.831 18.163,-7.1385 0.0331,-12.848 4.1516,0.0675 z"
       fill="#92d8fa"
       stroke-width="0"
       id="path40" />
    <g
       stroke-width="0"
       id="g42">
      <path
         d="m 150.21,112.66 -46.66,25.398 -0.0137,18.01 63.588,-34.613 z m 19.062,7.123 v 0.50195 l 0.49219,-0.26758 z"
         fill="#ffffff"
         id="path41" />
      <path
         d="m 103.54,138.06 -0.0352,39.625 h -0.01 v 42.871 l 17.303,8.5801 0.0352,-39.625 h 0.01 v -42.871 z"
         fill="#4898cb"
         id="path42" />
    </g>
    <g
       stroke-width="0"
       id="g44">
      <path
         d="m 118.44,96.09 -44.379,24.158 -0.01367,18.01 61.256,-33.344 -5.7148,-2.9726 0.0547,-0.0254 z"
         fill="#ffffff"
         id="path43" />
      <path
         d="m 74.045,120.25 0.01758,67 h 17.285 v -58.42 z"
         fill="#92d8fa"
         id="path44" />
    </g>
    <g
       transform="translate(56.465,-84)"
       fill="#ffffff"
       stroke-width="0"
       id="g46">
      <path
         d="m 47.031,302.74 0.01563,19.73 108.95,59.305 v -21.273 z"
         id="path45" />
      <path
         d="m 47.066,317.77 h 17.347 v 47.119 l -17.342,-9.5567 z"
         id="path46" />
    </g>
    <path
       d="m 205.25,56.107 -17.303,8.5801 v 6.1172 h -0.002 l 0.002,2.2441 v 1.0059 l 0.0137,14.697 0.0469,-0.02344 0.004,4.916 17.303,-8.5801 v -6.1172 h 0.002 l -0.002,-2.2441 v -1.0059 l -0.0138,-14.697 -0.0469,0.02344 z"
       fill="#8ed1f9"
       stroke-width="0"
       id="path47" />
    <g
       fill-rule="evenodd"
       stroke-linejoin="round"
       stroke-width="0"
       id="g50">
      <path
         d="m 171.77,176.56 -36.146,18.219 14.951,8.2695 35.146,-19.326 -0.008,-0.004 z"
         fill="#9bddfd"
         id="path48" />
      <path
         d="m 150.58,226.1 v -23.075 l -14.957,-8.2553 v 23.287 z"
         fill="#4898cb"
         id="path49" />
      <path
         d="m 185.72,205.87 -35.141,20.236 0.001,-23.088 35.143,-19.319 z"
         fill="#92d8fa"
         id="path50" />
    </g>
    <g
       fill="#ffffff"
       stroke-width="0"
       id="g53">
      <path
         d="m 199.89,17.607 -70.582,36.701 0.0547,0.02539 -30.625,15.926 20.801,10.111 30.369,-16.047 0.20117,0.09766 49.791,-26.309 v -20.502 z"
         id="path51" />
      <path
         d="m 119.55,60.152 -20.801,10.111 30.625,15.926 -0.0547,0.02539 39.68,20.633 v -20.771 l -18.879,-9.9746 -0.20117,0.09766 z"
         id="path52" />
      <path
         d="m 152.85,82.276 16.147,-8.6577 v 23.625 h -11.438 z"
         id="path53" />
    </g>
    <circle
       cx="170"
       cy="155.21001"
       r="9.8994999"
       fill="#9bddfd"
       stroke-width="0"
       id="circle53" />
    <g
       id="g54">
      <path
         d="m 186.27,142.83 v 0.004 l 0.008,-0.004 z m 0,0.0117 v 23.094 l 12.932,7.1016 0.004,4.0684 h 0.01 v 43.51 l 31.926,17.531 v -71.623 z"
         fill="#4898cb"
         stroke-width="0"
         id="path54" />
    </g>
  </g>
  <g
     transform="translate(-11.69314,-11.893499)"
     stroke-width="0"
     id="g57"
     style="display:inline">
    <path
       d="m 216.3,53.686 14.647,8.7559 0.0288,20.377 -14.772,-9.0059 z"
       fill="#92d8fa"
       id="path55" />
    <path
       d="m 216.32,53.685 15.664,-8.2344 15.522,8.9397 -16.523,8.0698 z"
       fill="#9bddfd"
       id="path56" />
    <path
       d="m 230.95,62.447 16.552,-8.0597 -0.0632,18.383 -16.486,10.051 z"
       fill="#4898cb"
       id="path57" />
  </g>
  <g
     transform="matrix(-1,0,0,1,451.2953,-11.893499)"
     stroke-width="0"
     id="g66"
     style="display:inline">
    <g
       fill="#ffffff"
       id="g60">
      <path
         transform="matrix(-1,0,0,1,462.26,0)"
         d="m 12.648,371.89 0.01367,19.73 218.46,118.91 v 0.01 l 0.01,-0.006 0.01,0.006 v -0.01 l 218.46,-118.91 0.0137,-19.73 -218.48,115.81 z"
         id="path58" />
      <path
         transform="translate(56.465,-84)"
         d="m 302.44,337.65 -0.0156,19.73 -127.75,69.627 v 0.01 l -0.01,-0.006 -0.01,0.006 v -0.01 l -127.75,-69.627 -0.01563,-19.73 127.77999,68.053 z"
         id="path59" />
      <path
         transform="matrix(-1,0,0,1,462.26,0)"
         d="m 126.56,384.68 0.0137,19.73 104.55,56.906 v 0.01 l 0.01,-0.006 0.01,0.006 v -0.01 l 104.55,-56.906 0.0137,-19.73 -104.57,55.43 z"
         id="path60" />
    </g>
    <g
       fill="#9bddfd"
       id="g63">
      <path
         transform="matrix(-1,0,0,1,462.26,0)"
         d="m 169.61,222.64 v 14.098 l 61.506,32.895 v 0.01 l 0.01,-0.006 0.01,0.006 v -0.01 l 61.506,-32.895 V 222.64 l -61.516,33.781 z"
         id="path61" />
      <path
         transform="matrix(-0.88438,0.46676,0.88438,0.46676,462.26,0)"
         d="m 258.32,-1.3882 7.8e-4,49.095 50.724,-2.71e-4 0.0105,0.01046 -7.5e-4,-0.0118 0.0118,7.55e-4 -0.0105,-0.01046 2.7e-4,-50.724 -49.095,-7.845e-4 -2.9e-4,1.6406 z"
         id="path62" />
      <path
         transform="matrix(-1,0,0,1,462.26,0)"
         d="m 231.12,89.012 v 0.0098 l -39.746,21.256 v 14.098 l 39.756,-21.832 39.756,21.832 v -14.098 L 231.14,89.0218 V 89.012 l -0.01,0.0059 z"
         id="path63" />
    </g>
  </g>
  <g
     fill="#ffffff"
     stroke-width="0"
     id="g68"
     transform="translate(-12.3347,-11.893499)">
    <circle
       cx="232.5"
       cy="290.28"
       r="9.8994999"
       id="circle66" />
    <circle
       cx="232.5"
       cy="410.64001"
       r="9.8994999"
       id="circle67" />
    <circle
       cx="232.5"
       cy="21.792999"
       r="9.8994999"
       id="circle68" />
  </g>
</svg>
